#!OML:ASF E:/inclinewalkrobotboard/Project1/Captureday1/Session1/subject1.ASF
:FULLY-SPECIFIED
:DEGREES
201
root 0 0 0 1.360662573501227 -3.514906812041051 1.791674691951304
lowerback 11.913230955013281 0.8935396880315247 -0.07661192959994112
upperback -4.364971211314023 1.1233722323476805 -0.5871477621015144
thorax -11.447969567909398 0.5162147037460287 -0.8354267090171099
lowerneck -6.695321610215622 1.6170298570484074 4.403552911061087
upperneck 18.595697668235996 3.0933639374635344 -7.883027204418888
head 6.924343500867028 1.1388277287725272 -3.035630291961392
rclavicle 6.896218375615418E-16 -1.1960812944964053E-15
rhumerus 19.111100554938865 13.721472895502366 -48.50706481987733
rradius 71.56714606934406
rwrist 26.745997273539544
rhand -35.046799427223185 -56.8186539283586
rfingers 7.125020000000025
rthumb -8.176764790190553 -86.73284755155633
lclavicle 6.134953612443991E-16 -1.791160852934155E-15
lhumerus 20.6692892218813 -12.08340057138243 45.084610908277114
lradius 69.64789296572401
lwrist -22.6358026264266
lhand -44.63719809057039 -70.15913406609714
lfingers 7.1250200000000214
lthumb -17.459459559522287 -40.87729132705326
rfemur -24.639653112502938 -2.091168037667161 17.17698115113295
rtibia 53.799435278525806
rfoot -29.05179738611884 -17.03927520193218
rtoes -18.298472947591762
lfemur -26.359043708774163 2.457408265351125 -18.02488368328869
ltibia 54.18874059593015
lfoot -31.084001467350507 -3.5150216158286716
ltoes -19.749804736656934
202
root 0 0 0 1.3605562303516994 -3.5150109935181066 1.7916781934615327
lowerback 11.913211978849764 0.8935269256396564 -0.07658777086876326
upperback -4.364930788255431 1.1233612368640034 -0.5871309282131427
thorax -11.447912266962694 0.5162081136127008 -0.8354188012333399
lowerneck -6.694950864905632 1.6169846827320713 4.403621882501037
upperneck 18.595487823538996 3.093317033606362 -7.8832056251444484
head 6.924212901056336 1.1388068978805692 -3.0357030789529933
rclavicle 6.913532436067007E-16 -1.1959950279095934E-15
rhumerus 19.111459951512636 13.72185203792061 -48.506975699813694
rradius 71.56736934285698
rwrist 26.745879533508813
rhand -35.04637044984872 -56.81809856923586
rfingers 7.125020000000025
rthumb -8.176344433650382 -86.73229930565938
lclavicle 6.152507719715543E-16 -1.791202526830886E-15
lhumerus 20.66935883456162 -12.083649132410171 45.084366969354
lradius 69.64802159544709
lwrist -22.635840283160086
lhand -44.63700905566893 -70.15810674618535
lfingers 7.1250200000000214
lthumb -17.459277642282174 -40.876283206653966
rfemur -24.63959741125372 -2.0911473854890335 17.177002875826712
rtibia 53.79944567247282
rfoot -29.051822471564986 -17.039231058948438
rtoes -18.29854164043768
lfemur -26.358935051419888 2.4574699488675704 -18.02487059190435
ltibia 54.18879505841022
lfoot -31.08398107996937 -3.514977703884269
ltoes -19.75018783242732
203
root 0 0 0 1.3604879774024512 -3.5150786993015513 1.791681024063295
lowerback 11.913201080964333 0.8935185561003363 -0.07657164417558612
upperback -4.364902199910842 1.1233541586895774 -0.587119625104713
thorax -11.447873170553446 0.5162038313623795 -0.8354134348029137
lowerneck -6.6947048603567065 1.6169525406574121 4.403667546308788
upperneck 18.595344282906126 3.0932828183734586 -7.883325575876353
head 6.924124879584288 1.1387916573269672 -3.0357522261744094
rclavicle 6.916501122242737E-16 -1.195818483700124E-15
rhumerus 19.111598825220433 13.721991039862509 -48.506908195093374
rradius 71.5674469261634
rwrist 26.745847477565064
rhand -35.04617349207137 -56.817843564143914
rfingers 7.125020000000025
rthumb -8.176152353929117 -86.73205395716847
lclavicle 6.155188314583668E-16 -1.791002785321862E-15
lhumerus 20.669400919577786 -12.083757911806579 45.08425289655193
lradius 69.6480803405322
lwrist -22.635865834646463
lhand -44.636936020474614 -70.15767162086976
lfingers 7.1250200000000214
lthumb -17.45920689266751 -40.875845982901936
rfemur -24.639589173655292 -2.0911442581749795 17.17700909278327
rtibia 53.79944696594692
rfoot -29.051849138006524 -17.03923128078825
rtoes -18.298552357553984
lfemur -26.358873244715863 2.4575037463152425 -18.02486327907092
ltibia 54.188799112395415
lfoot -31.083975586601984 -3.5149380242519874
ltoes -19.75040862309135
204
root 0 0 0 1.3609457579497404 -3.514636236438069 1.7916314665907813
lowerback 11.913218630820875 0.8935712598988901 -0.07664586464200093
upperback -4.365109351774808 1.1234020572569947 -0.587191765342092
thorax -11.44811828256998 0.5162306021880825 -0.8354646643951853
lowerneck -6.69621206971431 1.617126431717415 4.403358180742939
upperneck 18.596145547602912 3.093454763341845 -7.882510884634494
head 6.924636704672142 1.138871320029468 -3.0354246156417215
rclavicle 6.981187489507389E-16 -1.201670699897254E-15
rhumerus 19.111077130874577 13.722058706152215 -48.50933724585621
rradius 71.56751539227203
rwrist 26.74432854390457
rhand -35.04887393802589 -56.820407110290084
rfingers 7.125020000000025
rthumb -8.178717691855583 -86.73460735967844
lclavicle 6.405163085529625E-16 -1.801155975991588E-15
lhumerus 20.668432425262857 -12.082683227541729 45.08420886713737
lradius 69.6473374474866
lwrist -22.635892569437253
lhand -44.63666031136469 -70.15941979623757
lfingers 7.1250200000000214
lthumb -17.45898649231995 -40.87812949759469
rfemur -24.639314495024806 -2.0914540270453106 17.17765926623803
rtibia 53.8006521400856
rfoot -29.052787087806625 -17.040157992655352
rtoes -18.298948455206563
lfemur -26.361290622086678 2.4567333929596695 -18.02531324344521
ltibia 54.189701639874386
lfoot -31.085210749343403 -3.5167911430475964
ltoes -19.745291000152093
205
root 0 0 0 1.3607502201022346 -3.5148267014423 1.791667583451473
lowerback 11.913238929330417 0.8935504546028279 -0.0766283413841366
upperback -4.365011310387207 1.1233817704505642 -0.5871618031159149
thorax -11.448019782070128 0.5162202075968454 -0.8354357147175224
lowerneck -6.695622478883989 1.617070341540316 4.4034956405631185
upperneck 18.595866866085224 3.09340724542887 -7.882874711844142
head 6.924448784589933 1.138847300455672 -3.035567902423653
rclavicle 6.851332793780748E-16 -1.1952620491112782E-15
rhumerus 19.110936452039976 13.721271543219565 -48.50697112531095
rradius 71.5670797504888
rwrist 26.74610770593218
rhand -35.046994649360066 -56.818960853772495
rfingers 7.125020000000025
rthumb -8.176956259130552 -86.73321873159443
lclavicle 6.096435173777204E-16 -1.789854136261936E-15
lhumerus 20.669220498636307 -12.083118358738199 45.0849128028077
lradius 69.64779693647924
lwrist -22.635764192118536
lhand -44.6373894422329 -70.16008805040056
lfingers 7.1250200000000214
lthumb -17.459637816652215 -40.87814047302262
rfemur -24.639620074794212 -2.0911931845253924 17.176988847082814
rtibia 53.799569673798715
rfoot -29.051772386557616 -17.039289884847815
rtoes -18.29848347471361
lfemur -26.35920781790993 2.4573381932858824 -18.024904340400504
ltibia 54.18889940130052
lfoot -31.084083905348308 -3.5151012124139935
ltoes -19.749228713365987
